<?xml version="1.0" standalone="no"?>
<!DOCTYPE svg PUBLIC "-//W3C//DTD SVG 20010904//EN"
 "http://www.w3.org/TR/2001/REC-SVG-20010904/DTD/svg10.dtd">
<svg version="1.0" xmlns="http://www.w3.org/2000/svg"
 width="1200.000000pt" height="1200.000000pt" viewBox="0 0 1200.000000 1200.000000"
 preserveAspectRatio="xMidYMid meet">
<metadata>
Created by potrace 1.14, written by Peter Selinger 2001-2017
</metadata>
<g transform="translate(0.000000,1200.000000) scale(0.100000,-0.100000)"
fill="#000000" stroke="none">
<path d="M1415 11990 c-122 -19 -140 -22 -146 -25 -3 -2 -19 -7 -35 -9 -54
-10 -69 -14 -99 -26 -16 -6 -39 -14 -49 -16 -55 -11 -282 -118 -317 -150 -8
-8 -19 -14 -24 -14 -9 0 -115 -76 -170 -121 -120 -102 -275 -283 -347 -405
-39 -68 -118 -230 -118 -243 0 -6 -4 -19 -9 -29 -25 -44 -73 -232 -88 -341
-10 -70 -11 -9138 -1 -9206 12 -84 18 -119 25 -145 3 -14 8 -34 10 -45 5 -31
53 -175 75 -225 37 -86 112 -230 120 -230 4 0 8 -6 8 -13 0 -38 231 -302 334
-382 21 -16 45 -36 52 -43 7 -6 17 -12 22 -12 6 0 12 -4 14 -9 6 -18 257 -162
288 -166 3 0 10 -3 16 -7 22 -14 150 -57 229 -77 86 -21 118 -28 205 -39 77
-10 9143 -9 9205 1 28 5 70 13 95 18 25 6 54 13 65 15 52 10 62 13 90 24 17 6
39 14 49 16 102 20 372 169 498 275 62 52 182 171 220 220 15 19 39 48 52 65
114 142 241 421 280 619 4 17 9 41 12 55 2 14 8 50 12 80 9 71 9 9116 0 9195
-7 56 -9 72 -23 135 -4 14 -8 36 -11 50 -9 48 -52 176 -84 250 -33 77 -98 201
-110 210 -4 3 -9 12 -12 20 -20 56 -201 264 -308 354 -61 52 -61 52 -110 86
-19 13 -37 27 -40 30 -8 11 -141 85 -195 110 -27 12 -58 27 -68 32 -46 23
-226 80 -292 92 -47 9 -88 17 -115 24 -37 9 -9147 11 -9205 2z"/>
</g>
</svg>
